<?xml version="1.0" encoding="UTF-8" standalone="no"?>
<!-- Created with Inkscape (http://www.inkscape.org/) -->

<svg
   xmlns:dc="http://purl.org/dc/elements/1.1/"
   xmlns:cc="http://creativecommons.org/ns#"
   xmlns:rdf="http://www.w3.org/1999/02/22-rdf-syntax-ns#"
   xmlns:svg="http://www.w3.org/2000/svg"
   xmlns="http://www.w3.org/2000/svg"
   xmlns:sodipodi="http://sodipodi.sourceforge.net/DTD/sodipodi-0.dtd"
   xmlns:inkscape="http://www.inkscape.org/namespaces/inkscape"
   width="250.65543"
   height="113.84385"
   viewBox="0 0 250.65543 113.84385"
   preserveAspectRatio="xMidYMid meet"
   id="svg3893"
   version="1.1"
   inkscape:version="0.48.4 r9939"
   sodipodi:docname="CopyLeft.svg">
  <defs
     id="defs3895" />
  <sodipodi:namedview
     id="base"
     pagecolor="#ffffff"
     bordercolor="#666666"
     borderopacity="1.0"
     inkscape:pageopacity="0.0"
     inkscape:pageshadow="2"
     inkscape:zoom="0.35"
     inkscape:cx="1531.7563"
     inkscape:cy="-125.93522"
     inkscape:document-units="px"
     inkscape:current-layer="layer1"
     showgrid="false"
     fit-margin-top="0"
     fit-margin-left="0"
     fit-margin-right="0"
     fit-margin-bottom="0"
     inkscape:window-width="1830"
     inkscape:window-height="1055"
     inkscape:window-x="49"
     inkscape:window-y="0"
     inkscape:window-maximized="1" />
  <metadata
     id="metadata3898">
    <rdf:RDF>
      <cc:Work
         rdf:about="">
        <dc:format>image/svg+xml</dc:format>
        <dc:type
           rdf:resource="http://purl.org/dc/dcmitype/StillImage" />
        <dc:title></dc:title>
      </cc:Work>
    </rdf:RDF>
  </metadata>
  <g
     inkscape:label="Layer 1"
     inkscape:groupmode="layer"
     id="layer1"
     transform="translate(1156.7563,-292.58312)">
    <g
       transform="translate(-1270.7892,-57.854568)"
       style="display:inline"
       id="g3824">
      <rect
         y="350.43768"
         x="114.03291"
         height="113.84385"
         width="250.65543"
         id="rect3809"
         style="fill:#ffd500;fill-opacity:1;stroke:none" />
      <g
         transform="translate(4.2553191,-270.21277)"
         id="g3827">
        <g
           style="font-size:40px;font-style:normal;font-weight:normal;line-height:125%;letter-spacing:0px;word-spacing:0px;fill:#005bbb;fill-opacity:1;stroke:none;font-family:Sans"
           id="flowRoot2987-2"
           transform="matrix(-3.0802255,0,0,3.0802255,1112.7351,-423.78267)">
          <path
             d="m 260,343.24106 c 1.97914,3e-5 3.82159,0.3581 5.52734,1.07422 1.71873,0.71617 3.28774,1.78388 4.70703,3.20312 1.41924,1.4193 2.48044,2.9818 3.1836,4.6875 0.70309,1.70575 1.05465,3.56122 1.05469,5.56641 -4e-5,1.97918 -0.3516,3.82163 -1.05469,5.52734 -0.70316,1.69272 -1.76436,3.24871 -3.1836,4.66797 -1.41929,1.41928 -2.9883,2.48698 -4.70703,3.20313 -1.70575,0.71614 -3.5482,1.07422 -5.52734,1.07422 -1.97918,0 -3.82814,-0.35808 -5.54688,-1.07422 -1.70574,-0.71615 -3.26824,-1.78385 -4.6875,-3.20313 -1.41927,-1.41926 -2.48047,-2.97525 -3.18359,-4.66797 -0.70313,-1.70571 -1.05469,-3.54816 -1.05469,-5.52734 0,-2.00519 0.35156,-3.86066 1.05469,-5.56641 0.70312,-1.7057 1.76432,-3.2682 3.18359,-4.6875 1.41926,-1.41924 2.98176,-2.48695 4.6875,-3.20312 1.71874,-0.71612 3.5677,-1.07419 5.54688,-1.07422 m 0,2.01172 c -1.70575,3e-5 -3.29429,0.30602 -4.76563,0.91797 -1.47136,0.612 -2.81902,1.52997 -4.04296,2.7539 -1.22397,1.22398 -2.14845,2.58466 -2.77344,4.08204 -0.62501,1.48439 -0.93751,3.07293 -0.9375,4.76562 -1e-5,1.6797 0.31249,3.26173 0.9375,4.74609 0.62499,1.47137 1.54947,2.81902 2.77344,4.04297 1.22394,1.22397 2.5716,2.14844 4.04296,2.77344 1.47134,0.61198 3.05988,0.91797 4.76563,0.91797 1.71873,0 3.31378,-0.30599 4.78516,-0.91797 1.48434,-0.625 2.83851,-1.54947 4.0625,-2.77344 1.2109,-1.21093 2.11585,-2.55207 2.71484,-4.02343 0.61195,-1.47135 0.91794,-3.05989 0.91797,-4.76563 -3e-5,-1.73175 -0.30602,-3.33332 -0.91797,-4.80469 -0.61201,-1.48435 -1.51696,-2.83201 -2.71484,-4.04297 -1.22399,-1.22393 -2.57816,-2.1419 -4.0625,-2.7539 -1.47138,-0.61195 -3.06643,-0.91794 -4.78516,-0.91797 m 5.83984,4.78516 0,2.51953 c -0.8594,-0.42967 -1.71226,-0.74868 -2.55859,-0.95703 -0.84638,-0.20832 -1.69924,-0.31248 -2.55859,-0.3125 -1.94013,2e-5 -3.45705,0.57293 -4.55079,1.71875 -1.08074,1.13283 -1.6211,2.72137 -1.62109,4.76562 -1e-5,2.07033 0.55337,3.67189 1.66016,4.80469 1.11977,1.13282 2.68878,1.69922 4.70703,1.69922 0.83331,0 1.64711,-0.0977 2.4414,-0.29297 0.79425,-0.20833 1.62107,-0.53385 2.48047,-0.97656 l 0,2.48046 c -0.87242,0.37761 -1.75783,0.65756 -2.65625,0.83985 -0.88544,0.1823 -1.78387,0.27344 -2.69531,0.27344 -2.81252,0 -5.03908,-0.79427 -6.67969,-2.38282 -1.62761,-1.58853 -2.44141,-3.73696 -2.4414,-6.44531 -1e-5,-2.72134 0.81379,-4.86977 2.4414,-6.44531 1.64061,-1.5755 3.86717,-2.36326 6.67969,-2.36328 0.9505,2e-5 1.86847,0.0912 2.75391,0.27343 0.88539,0.18232 1.75127,0.44925 2.59765,0.80079"
             id="path3783-2"
             inkscape:connector-curvature="0"
             style="fill:#005bbb" />
        </g>
        <g
           id="g3806"
           transform="translate(20.212766,-75.531915)">
          <rect
             transform="scale(-1,1)"
             y="728.95795"
             x="-249.86771"
             height="50"
             width="103.19149"
             id="rect3825-5"
             style="fill:#005bbb;stroke:none" />
          <path
             inkscape:transform-center-y="1.2430712e-05"
             transform="matrix(-1.032326,0,0,1.7707068,331.99366,-429.97212)"
             inkscape:transform-center-x="-8.511196"
             d="m 229.75351,668.31964 -51.01325,29.45252 0,-58.90503 z"
             inkscape:randomized="0"
             inkscape:rounded="0"
             inkscape:flatsided="true"
             sodipodi:arg2="1.0471976"
             sodipodi:arg1="0"
             sodipodi:r2="16.489363"
             sodipodi:r1="34.008835"
             sodipodi:cy="668.31964"
             sodipodi:cx="195.74467"
             sodipodi:sides="3"
             id="path3848-4"
             style="fill:#005bbb;stroke:none"
             sodipodi:type="star" />
        </g>
        <path
           style="opacity:0;fill:#ffd500;fill-opacity:1;stroke:none"
           d="m 306.29077,715.51931 c -13.11846,-2.14992 -25.10629,-11.81769 -29.64288,-23.90596 -3.27902,-8.73735 -2.82839,-20.83437 1.08974,-29.25367 7.15638,-15.37767 24.56603,-24.4578 40.7783,-21.26823 8.47407,1.66717 13.65749,4.43705 19.80221,10.58177 5.97942,5.97943 8.77007,11.08958 10.63161,19.46826 3.45006,15.52861 -5.31246,33.08852 -20.31549,40.71186 -4.28104,2.17528 -6.83076,2.86251 -15.36678,4.14178 -1.17021,0.17538 -4.30973,-0.0387 -6.97671,-0.47581 z m 14.86079,-11.2063 c 7.19128,-2.13558 14.3165,-8.9866 16.14803,-15.52662 1.94135,-6.93217 1.52592,-17.94098 -0.88248,-23.38549 -4.41882,-9.98936 -15.62391,-15.56677 -28.94514,-14.40763 -3.83375,0.33359 -8.5263,1.16 -10.42789,1.83647 -3.0999,1.10274 -3.45745,1.65924 -3.45745,5.38119 0,4.65655 0.31727,4.79911 5.68698,2.5555 2.10053,-0.87765 6.48658,-1.59574 9.74676,-1.59574 12.21785,0 18.60881,6.6035 18.60881,19.22767 0,8.49167 -2.93141,13.98419 -9.04235,16.94245 -5.28224,2.55709 -13.89848,2.79443 -19.31322,0.53201 -5.37694,-2.24663 -5.68698,-2.10387 -5.68698,2.61857 0,4.49636 -0.1565,4.3918 10.10638,6.75175 4.59914,1.05756 12.1133,0.65724 17.45855,-0.93013 l 0,0 z"
           id="path3810"
           inkscape:connector-curvature="0" />
        <path
           style="opacity:0;fill:#ffd500;fill-opacity:1;stroke:none"
           d="m 306.29077,715.51931 c -13.11846,-2.14992 -25.10629,-11.81769 -29.64288,-23.90596 -3.27902,-8.73735 -2.82839,-20.83437 1.08974,-29.25367 7.15638,-15.37767 24.56603,-24.4578 40.7783,-21.26823 8.47407,1.66717 13.65749,4.43705 19.80221,10.58177 5.97942,5.97943 8.77007,11.08958 10.63161,19.46826 3.45006,15.52861 -5.31246,33.08852 -20.31549,40.71186 -4.28104,2.17528 -6.83076,2.86251 -15.36678,4.14178 -1.17021,0.17538 -4.30973,-0.0387 -6.97671,-0.47581 z m 14.86079,-11.2063 c 7.19128,-2.13558 14.3165,-8.9866 16.14803,-15.52662 1.94135,-6.93217 1.52592,-17.94098 -0.88248,-23.38549 -4.41882,-9.98936 -15.62391,-15.56677 -28.94514,-14.40763 -3.83375,0.33359 -8.5263,1.16 -10.42789,1.83647 -3.0999,1.10274 -3.45745,1.65924 -3.45745,5.38119 0,4.65655 0.31727,4.79911 5.68698,2.5555 2.10053,-0.87765 6.48658,-1.59574 9.74676,-1.59574 12.21785,0 18.60881,6.6035 18.60881,19.22767 0,8.49167 -2.93141,13.98419 -9.04235,16.94245 -5.28224,2.55709 -13.89848,2.79443 -19.31322,0.53201 -5.37694,-2.24663 -5.68698,-2.10387 -5.68698,2.61857 0,4.49636 -0.1565,4.3918 10.10638,6.75175 4.59914,1.05756 12.1133,0.65724 17.45855,-0.93013 l 0,0 z"
           id="path3812"
           inkscape:connector-curvature="0" />
        <path
           style="opacity:0;fill:#ffd500;fill-opacity:1;stroke:none"
           d="m 306.29077,715.51931 c -13.11846,-2.14992 -25.10629,-11.81769 -29.64288,-23.90596 -3.27902,-8.73735 -2.82839,-20.83437 1.08974,-29.25367 7.15638,-15.37767 24.56603,-24.4578 40.7783,-21.26823 8.47407,1.66717 13.65749,4.43705 19.80221,10.58177 5.97942,5.97943 8.77007,11.08958 10.63161,19.46826 3.45006,15.52861 -5.31246,33.08852 -20.31549,40.71186 -4.28104,2.17528 -6.83076,2.86251 -15.36678,4.14178 -1.17021,0.17538 -4.30973,-0.0387 -6.97671,-0.47581 z m 14.86079,-11.2063 c 7.19128,-2.13558 14.3165,-8.9866 16.14803,-15.52662 1.94135,-6.93217 1.52592,-17.94098 -0.88248,-23.38549 -4.41882,-9.98936 -15.62391,-15.56677 -28.94514,-14.40763 -3.83375,0.33359 -8.5263,1.16 -10.42789,1.83647 -3.0999,1.10274 -3.45745,1.65924 -3.45745,5.38119 0,4.65655 0.31727,4.79911 5.68698,2.5555 2.10053,-0.87765 6.48658,-1.59574 9.74676,-1.59574 12.21785,0 18.60881,6.6035 18.60881,19.22767 0,8.49167 -2.93141,13.98419 -9.04235,16.94245 -5.28224,2.55709 -13.89848,2.79443 -19.31322,0.53201 -5.37694,-2.24663 -5.68698,-2.10387 -5.68698,2.61857 0,4.49636 -0.1565,4.3918 10.10638,6.75175 4.59914,1.05756 12.1133,0.65724 17.45855,-0.93013 l 0,0 z"
           id="path3814"
           inkscape:connector-curvature="0" />
        <path
           style="opacity:0;fill:#ffd500;fill-opacity:1;stroke:none"
           d="m 306.29077,715.51931 c -13.11846,-2.14992 -25.10629,-11.81769 -29.64288,-23.90596 -3.27902,-8.73735 -2.82839,-20.83437 1.08974,-29.25367 7.15638,-15.37767 24.56603,-24.4578 40.7783,-21.26823 8.47407,1.66717 13.65749,4.43705 19.80221,10.58177 5.97942,5.97943 8.77007,11.08958 10.63161,19.46826 3.45006,15.52861 -5.31246,33.08852 -20.31549,40.71186 -4.28104,2.17528 -6.83076,2.86251 -15.36678,4.14178 -1.17021,0.17538 -4.30973,-0.0387 -6.97671,-0.47581 z m 14.86079,-11.2063 c 7.19128,-2.13558 14.3165,-8.9866 16.14803,-15.52662 1.94135,-6.93217 1.52592,-17.94098 -0.88248,-23.38549 -4.41882,-9.98936 -15.62391,-15.56677 -28.94514,-14.40763 -3.83375,0.33359 -8.5263,1.16 -10.42789,1.83647 -3.0999,1.10274 -3.45745,1.65924 -3.45745,5.38119 0,4.65655 0.31727,4.79911 5.68698,2.5555 2.10053,-0.87765 6.48658,-1.59574 9.74676,-1.59574 12.21785,0 18.60881,6.6035 18.60881,19.22767 0,8.49167 -2.93141,13.98419 -9.04235,16.94245 -5.28224,2.55709 -13.89848,2.79443 -19.31322,0.53201 -5.37694,-2.24663 -5.68698,-2.10387 -5.68698,2.61857 0,4.49636 -0.1565,4.3918 10.10638,6.75175 4.59914,1.05756 12.1133,0.65724 17.45855,-0.93013 l 0,0 z"
           id="path3816"
           inkscape:connector-curvature="0" />
        <path
           style="opacity:0;fill:#ffd500;fill-opacity:1;stroke:none"
           d="m 306.29077,715.51931 c -13.11846,-2.14992 -25.10629,-11.81769 -29.64288,-23.90596 -3.27902,-8.73735 -2.82839,-20.83437 1.08974,-29.25367 7.15638,-15.37767 24.56603,-24.4578 40.7783,-21.26823 8.47407,1.66717 13.65749,4.43705 19.80221,10.58177 5.97942,5.97943 8.77007,11.08958 10.63161,19.46826 3.45006,15.52861 -5.31246,33.08852 -20.31549,40.71186 -4.28104,2.17528 -6.83076,2.86251 -15.36678,4.14178 -1.17021,0.17538 -4.30973,-0.0387 -6.97671,-0.47581 z m 14.86079,-11.2063 c 7.19128,-2.13558 14.3165,-8.9866 16.14803,-15.52662 1.94135,-6.93217 1.52592,-17.94098 -0.88248,-23.38549 -4.41882,-9.98936 -15.62391,-15.56677 -28.94514,-14.40763 -3.83375,0.33359 -8.5263,1.16 -10.42789,1.83647 -3.0999,1.10274 -3.45745,1.65924 -3.45745,5.38119 0,4.65655 0.31727,4.79911 5.68698,2.5555 2.10053,-0.87765 6.48658,-1.59574 9.74676,-1.59574 12.21785,0 18.60881,6.6035 18.60881,19.22767 0,8.49167 -2.93141,13.98419 -9.04235,16.94245 -5.28224,2.55709 -13.89848,2.79443 -19.31322,0.53201 -5.37694,-2.24663 -5.68698,-2.10387 -5.68698,2.61857 0,4.49636 -0.1565,4.3918 10.10638,6.75175 4.59914,1.05756 12.1133,0.65724 17.45855,-0.93013 l 0,0 z"
           id="path3818"
           inkscape:connector-curvature="0" />
      </g>
    </g>
  </g>
</svg>
